<svg width="32" height="32" viewBox="0 0 32 32" fill="none" xmlns="http://www.w3.org/2000/svg">
<path d="M22.2202 2.68028C24.1383 2.56041 26.0296 3.22639 27.4549 4.5317C28.7602 5.95689 29.4262 7.84827 29.3196 9.77961V22.2201C29.4395 24.1514 28.7602 26.0428 27.4682 27.468C26.043 28.7733 24.1383 29.4393 22.2202 29.3194H9.77966C7.84831 29.4393 5.95692 28.7733 4.53172 27.468C3.22639 26.0428 2.56041 24.1514 2.68028 22.2201V9.77961C2.56041 7.84827 3.22639 5.95689 4.53172 4.5317C5.95692 3.22639 7.84831 2.56041 9.77966 2.68028H22.2202ZM21.8739 8.76732C21.0481 7.94151 19.7161 7.94151 18.8903 8.76732L17.9979 9.67305C17.8647 9.80625 17.8647 10.0327 17.9979 10.1659C17.9979 10.1659 18.024 10.1919 18.0706 10.2381L18.3982 10.564C18.5877 10.7525 18.8243 10.988 19.0618 11.2248L19.8673 12.0298C20.0353 12.1987 20.1468 12.3118 20.1557 12.3236C20.3022 12.4835 20.3954 12.6966 20.3954 12.9363C20.3954 13.4158 20.0092 13.8154 19.5163 13.8154C19.2899 13.8154 19.0768 13.7222 18.9303 13.5757L16.7059 11.3646C16.5993 11.2581 16.4129 11.2581 16.3063 11.3646L9.95282 17.7181C9.51327 18.1576 9.2602 18.7437 9.24688 19.3697L9.16696 22.5264C9.16696 22.6996 9.22024 22.8594 9.34011 22.9793C9.45999 23.0992 9.61983 23.1658 9.79298 23.1658H12.9231C13.5624 23.1658 14.1752 22.9127 14.6413 22.4598L23.6055 13.4691C24.418 12.6433 24.418 11.3114 23.6055 10.4989L21.8739 8.76732Z"/>
</svg>
