<svg width="24" height="24" viewBox="0 0 24 24" fill="none" xmlns="http://www.w3.org/2000/svg">
<path d="M10.9402 20.7171C11.2215 20.998 11.6027 21.1558 12.0002 21.1558C12.3977 21.1558 12.779 20.998 13.0602 20.7171L18.7192 15.0611C19.0006 14.7797 19.1587 14.398 19.1587 14.0001C19.1587 13.6021 19.0006 13.2205 18.7192 12.9391C18.4378 12.6577 18.0562 12.4996 17.6582 12.4996C17.2603 12.4996 16.8786 12.6577 16.5972 12.9391L13.5002 16.0351L13.5002 4.50008C13.5002 4.10226 13.3422 3.72073 13.0609 3.43942C12.7796 3.15812 12.398 3.00008 12.0002 3.00008C11.6024 3.00008 11.2209 3.15812 10.9396 3.43942C10.6582 3.72073 10.5002 4.10226 10.5002 4.50008L10.5002 16.0351L7.40421 12.9391C7.26488 12.7997 7.09947 12.6892 6.91742 12.6138C6.73537 12.5384 6.54026 12.4996 6.34321 12.4996C6.14617 12.4996 5.95105 12.5384 5.769 12.6138C5.58696 12.6892 5.42154 12.7997 5.28221 12.9391C5.14288 13.0784 5.03236 13.2438 4.95695 13.4259C4.88154 13.6079 4.84273 13.803 4.84273 14.0001C4.84273 14.1971 4.88154 14.3922 4.95695 14.5743C5.03235 14.7563 5.14288 14.9217 5.28221 15.0611L10.9402 20.7171Z"/>
</svg>
