<svg width="21" height="21" viewBox="0 0 21 21" fill="none" xmlns="http://www.w3.org/2000/svg">
<path d="M16.343 11.4409C16.1895 11.6039 15.9798 11.7022 15.7563 11.7159L9.99968 12.0276C9.86131 12.042 9.72149 12.0253 9.59039 11.9788C9.45929 11.9323 9.34021 11.8571 9.24185 11.7587C9.14349 11.6604 9.06831 11.5413 9.0218 11.4102C8.9753 11.2791 8.95862 11.1393 8.97301 11.0009L9.28468 5.18925C9.2984 4.96584 9.39673 4.75605 9.55968 4.60258L12.3647 1.83425H1.74967C1.50656 1.83425 1.2734 1.93083 1.10149 2.10274C0.929585 2.27465 0.833008 2.5078 0.833008 2.75092V19.2509C0.833008 19.494 0.929585 19.7272 1.10149 19.8991C1.2734 20.071 1.50656 20.1676 1.74967 20.1676H18.2497C18.4928 20.1676 18.726 20.071 18.8979 19.8991C19.0698 19.7272 19.1663 19.494 19.1663 19.2509V8.63592L16.343 11.4409ZM14.4363 9.93759L11.833 10.0843C11.7112 10.0894 11.5897 10.0693 11.4762 10.025C11.3626 9.98082 11.2595 9.91348 11.1733 9.8273C11.0871 9.74113 11.0198 9.63799 10.9755 9.52443C10.9313 9.41086 10.9112 9.28935 10.9163 9.16759L11.063 6.56425C11.0669 6.3459 11.1519 6.13679 11.3013 5.97758L17.0397 0.257585C17.1185 0.17379 17.2137 0.107017 17.3193 0.0613748C17.4249 0.0157329 17.5388 -0.0078125 17.6538 -0.0078125C17.7689 -0.0078125 17.8827 0.0157329 17.9884 0.0613748C18.094 0.107017 18.1892 0.17379 18.268 0.257585L20.743 2.73258C20.8268 2.81144 20.8936 2.9066 20.9392 3.01222C20.9849 3.11785 21.0084 3.23169 21.0084 3.34675C21.0084 3.46181 20.9849 3.57566 20.9392 3.68128C20.8936 3.7869 20.8268 3.88207 20.743 3.96092L15.023 9.69925C14.8638 9.84874 14.6547 9.93369 14.4363 9.93759Z" fill="#05272E"/>
</svg>
