<svg width="26" height="28" viewBox="0 0 26 28" fill="none" xmlns="http://www.w3.org/2000/svg">
<path d="M9.17987 25.6976V21.6207C9.17987 20.5799 10.0297 19.7362 11.0781 19.7362H14.9103C15.4137 19.7362 15.8966 19.9348 16.2525 20.2882C16.6085 20.6416 16.8085 21.1209 16.8085 21.6207V25.6976C16.8053 26.1303 16.9762 26.5463 17.2833 26.8534C17.5904 27.1605 18.0082 27.3332 18.4441 27.3332H21.0586C22.2797 27.3363 23.4518 26.857 24.3164 26.0009C25.1809 25.1449 25.6668 23.9825 25.6668 22.7703V11.1556C25.6668 10.1765 25.2296 9.24763 24.473 8.6194L15.5789 1.56766C14.0317 0.331253 11.815 0.371173 10.314 1.66248L1.62285 8.6194C0.830484 9.22911 0.356899 10.1607 0.333496 11.1556V22.7584C0.333496 25.285 2.39667 27.3332 4.94173 27.3332H7.49655C8.4018 27.3332 9.13749 26.6081 9.14405 25.7095L9.17987 25.6976Z"/>
</svg>
