<svg width="24" height="15" viewBox="0 0 24 15" fill="none" xmlns="http://www.w3.org/2000/svg">
<path d="M23.1853 7.19516C23.1524 7.1211 22.3585 5.35989 20.5928 3.59412C18.2412 1.24222 15.2698 -0.000976562 12 -0.000976562C8.73017 -0.000976562 5.75874 1.24222 3.40711 3.59412C1.64142 5.3599 0.847573 7.12109 0.814613 7.19516C0.772012 7.29106 0.75 7.39482 0.75 7.49976C0.75 7.60469 0.772012 7.70846 0.814613 7.80435C0.847573 7.87851 1.64152 9.63925 3.4072 11.4048C5.75883 13.7561 8.73017 14.999 12 14.999C15.2698 14.999 18.2411 13.7561 20.5928 11.4048C22.3584 9.63926 23.1524 7.87851 23.1853 7.80436C23.2279 7.70846 23.25 7.60469 23.25 7.49976C23.25 7.39482 23.2279 7.29106 23.1853 7.19516ZM12 4.12485C12.6675 4.12485 13.32 4.32279 13.875 4.69364C14.43 5.06449 14.8626 5.59159 15.1181 6.20829C15.3735 6.82499 15.4404 7.50359 15.3101 8.15828C15.1799 8.81296 14.8585 9.41433 14.3865 9.88633C13.9145 10.3583 13.3131 10.6798 12.6584 10.81C12.0037 10.9402 11.3251 10.8734 10.7084 10.6179C10.0917 10.3625 9.56462 9.92991 9.19377 9.3749C8.82292 8.81988 8.62498 8.16736 8.62498 7.49985C8.62598 6.60505 8.98189 5.74719 9.6146 5.11448C10.2473 4.48176 11.1052 4.12585 12 4.12485Z" fill="#333333"/>
</svg>
