<svg width="32" height="32" viewBox="0 0 32 32" fill="none" xmlns="http://www.w3.org/2000/svg">
<path d="M10.3333 7.75016C10.3333 4.89558 12.6453 2.5835 15.4999 2.5835C18.3545 2.5835 20.6666 4.89558 20.6666 7.75016C20.6666 10.6047 18.3545 12.9168 15.4999 12.9168C12.6453 12.9168 10.3333 10.6047 10.3333 7.75016ZM21.9583 28.4168H23.2499C24.6708 28.4168 25.8333 27.2543 25.8333 25.8335V19.6593C25.8333 18.2127 25.0453 16.8822 23.7537 16.2235C23.1983 15.9393 22.6041 15.6681 21.9583 15.4227V28.4168ZM15.9391 21.9585L19.3749 14.6347C18.1737 14.3635 16.882 14.2085 15.4999 14.2085C12.232 14.2085 9.41617 15.1127 7.24617 16.2235C6.61591 16.5481 6.08794 17.041 5.72084 17.6475C5.35375 18.254 5.1619 18.9504 5.16659 19.6593V28.4168H8.18909C7.90492 27.8356 7.74992 27.1768 7.74992 26.4793C7.74992 23.9864 9.77784 21.9585 12.2708 21.9585H15.9391ZM12.9166 28.4168L14.7378 24.5418H12.2708C11.1987 24.5418 10.3333 25.4072 10.3333 26.4793C10.3333 27.5514 11.1987 28.4168 12.2708 28.4168H12.9166Z"/>
</svg>
