<svg width="19" height="19" viewBox="0 0 19 19" fill="none" xmlns="http://www.w3.org/2000/svg">
<path d="M18.5 4.68927L14.3107 0.499908C14.1714 0.360614 14.0061 0.250119 13.8241 0.174733C13.6421 0.0993474 13.447 0.0605469 13.25 0.0605469C13.053 0.0605469 12.858 0.0993474 12.676 0.174733C12.494 0.250119 12.3287 0.360614 12.1894 0.499908L9.71982 2.96945L9.71969 2.96959L9.71955 2.96973L0.939412 11.7499C0.799668 11.8888 0.688877 12.0541 0.613452 12.2362C0.538028 12.4183 0.499468 12.6135 0.500006 12.8105V16.9999C0.50046 17.3976 0.658642 17.7789 0.939848 18.0601C1.22105 18.3413 1.60232 18.4995 2.00001 18.4999H6.18937C6.38643 18.5004 6.58164 18.4619 6.7637 18.3865C6.94576 18.3111 7.11105 18.2003 7.25001 18.0605L18.5001 6.81055C18.7809 6.52902 18.9387 6.14757 18.9386 5.7499C18.9386 5.35222 18.7809 4.97079 18.5 4.68927ZM15.5 7.68927L11.3107 3.49991L13.25 1.56055L17.4394 5.74991L15.5 7.68927Z" fill="#333333"/>
</svg>
