<svg viewBox="0 0 20 20" xmlns="http://www.w3.org/2000/svg">
<path d="M17.3415 12.3768L13.6823 10.8086C13.4913 10.7264 13.2827 10.6933 13.0756 10.7123C12.8684 10.7313 12.6694 10.8019 12.4965 10.9176L10.54 12.2217C9.34426 11.6402 8.37647 10.6766 7.78961 9.48347L7.78976 9.48332L9.08935 7.49754C9.20248 7.32515 9.27111 7.1274 9.28911 6.922C9.30711 6.71659 9.27392 6.50992 9.1925 6.32048L7.62283 2.65814C7.51599 2.40954 7.33149 2.20224 7.09696 2.06728C6.86243 1.93231 6.5905 1.87695 6.32187 1.90947C5.2663 2.04519 4.29623 2.56056 3.5929 3.35929C2.88957 4.15803 2.50108 5.18549 2.5 6.24976C2.5 12.4531 7.54669 17.4998 13.75 17.4998C14.8143 17.4987 15.8418 17.1102 16.6405 16.4068C17.4392 15.7035 17.9546 14.7334 18.0903 13.6778C18.1227 13.4092 18.0673 13.1373 17.9323 12.9028C17.7974 12.6683 17.5901 12.4837 17.3415 12.3768Z"/>
</svg>
