<svg viewBox="0 0 20 20" xmlns="http://www.w3.org/2000/svg">
<path d="M12.3663 13.5503C14.883 14.0253 16.6663 15.242 16.6663 16.667V18.3337H3.33301V16.667C3.33301 15.242 5.11634 14.0253 7.63301 13.5503L9.99967 17.5003L12.3663 13.5503ZM6.66634 6.667H13.333V8.33367C13.333 9.21772 12.9818 10.0656 12.3567 10.6907C11.7316 11.3158 10.8837 11.667 9.99967 11.667C9.11562 11.667 8.26777 11.3158 7.64265 10.6907C7.01753 10.0656 6.66634 9.21772 6.66634 8.33367V6.667ZM6.66634 5.83367L7.00801 2.417C7.02874 2.21073 7.1256 2.0196 7.27969 1.88091C7.43379 1.74223 7.63404 1.66596 7.84134 1.667H12.1663C12.5913 1.667 12.9497 1.992 12.9913 2.417L13.333 5.83367H6.66634ZM9.99967 2.50034H9.16634V3.33367H8.33301V4.167H9.16634V5.00034H9.99967V4.167H10.833V3.33367H9.99967V2.50034Z"/>
</svg>
