<svg width="48" height="48" viewBox="0 0 48 48" fill="none" xmlns="http://www.w3.org/2000/svg">
<path fill-rule="evenodd" clip-rule="evenodd" d="M20.5279 19.5139C23.0485 19.5139 25.4659 18.5125 27.2483 16.7302C29.0306 14.9479 30.0319 12.5305 30.0319 10.0099C30.0319 7.48924 29.0306 5.07186 27.2483 3.28952C25.4659 1.50717 23.0485 0.505859 20.5279 0.505859C18.0073 0.505859 15.5899 1.50717 13.8076 3.28952C12.0252 5.07186 11.0239 7.48924 11.0239 10.0099C11.0239 12.5305 12.0252 14.9479 13.8076 16.7302C15.5899 18.5125 18.0073 19.5139 20.5279 19.5139ZM20.9079 39.1219C20.9079 40.2599 21.2519 41.3159 21.8419 42.1919H2.96792C1.81792 42.1919 0.895917 41.2199 1.08792 40.0859C2.59392 31.2379 10.1879 23.7259 20.5179 23.7259C26.1579 23.7259 30.9799 25.9619 34.4439 29.4319C33.8746 30.2636 33.57 31.248 33.5699 32.2559V33.6219H26.4059C24.9472 33.6219 23.5483 34.2013 22.5168 35.2328C21.4854 36.2642 20.9059 37.6632 20.9059 39.1219H20.9079ZM37.0699 36.6219V32.2599C37.0702 31.9634 37.1583 31.6736 37.3231 31.4272C37.488 31.1808 37.7221 30.9887 37.9961 30.8753C38.27 30.7619 38.5714 30.7322 38.8622 30.7899C39.153 30.8477 39.4201 30.9903 39.6299 31.1999L46.4999 38.0659C46.6393 38.2052 46.7499 38.3706 46.8253 38.5526C46.9008 38.7347 46.9396 38.9298 46.9396 39.1269C46.9396 39.3239 46.9008 39.5191 46.8253 39.7011C46.7499 39.8832 46.6393 40.0486 46.4999 40.1879L39.6319 47.0559C39.4221 47.2654 39.155 47.408 38.8642 47.4658C38.5734 47.5236 38.272 47.4939 37.9981 47.3804C37.7241 47.267 37.49 47.075 37.3251 46.8285C37.1603 46.5821 37.0722 46.2923 37.0719 45.9959V41.6239H26.4059C25.7429 41.6239 25.107 41.3605 24.6381 40.8916C24.1693 40.4228 23.9059 39.7869 23.9059 39.1239C23.9059 38.4608 24.1693 37.8249 24.6381 37.3561C25.107 36.8872 25.7429 36.6239 26.4059 36.6239L37.0699 36.6219Z" fill="#333333"/>
</svg>
