<svg viewBox="0 0 20 18" xmlns="http://www.w3.org/2000/svg">
<path fill-rule="evenodd" clip-rule="evenodd" d="M3.40995 0.654C4.14295 0.219 5.01095 0 5.99995 0C6.97595 0 7.80795 0.493 8.38195 0.833C8.86795 1.123 9.41195 1.5 9.99995 1.5C10.5879 1.5 11.1319 1.122 11.6179 0.833C12.1929 0.494 13.0249 0 13.9999 0C14.9899 0 15.8579 0.219 16.5899 0.654C17.3219 1.089 17.8629 1.708 18.2459 2.422C18.9959 3.818 19.1659 5.614 19.0629 7.362C18.9579 9.137 18.5629 10.993 18.0619 12.607C17.5639 14.208 16.9379 15.645 16.3319 16.555C15.6359 17.598 14.6689 18.117 13.6439 17.973C12.7029 17.841 11.9719 17.18 11.6059 16.447C11.2149 15.665 11.0339 14.792 10.6909 13.989C10.5203 13.5937 10.3586 13.312 10.2059 13.144C10.0459 12.968 9.94895 12.973 9.79495 13.144C9.64161 13.312 9.47961 13.5937 9.30895 13.989C8.96595 14.792 8.78595 15.665 8.39495 16.447C8.02795 17.18 7.29695 17.841 6.35695 17.973C5.33095 18.117 4.36395 17.598 3.66795 16.555C3.06195 15.645 2.43595 14.208 1.93795 12.607C1.43695 10.993 1.04195 9.137 0.937946 7.363C0.833946 5.613 1.00395 3.818 1.75395 2.422C2.13695 1.708 2.67795 1.089 3.40995 0.654Z"/>
</svg>
