<svg viewBox="0 0 20 20" xmlns="http://www.w3.org/2000/svg">
<path fill-rule="evenodd" clip-rule="evenodd" d="M4.91019 4.56407C4.89219 4.84707 4.87619 5.16007 4.86319 5.49107C4.80919 6.84907 4.81619 8.39807 4.96519 9.56907L12.2302 16.8341L17.1802 11.8841L9.91519 4.61907C8.74519 4.47007 7.19519 4.46307 5.83719 4.51707C5.50619 4.53007 5.19419 4.54707 4.91019 4.56407ZM3.09419 2.74807C2.99719 2.84007 2.60419 7.31507 3.01719 10.0781C3.06119 10.3721 3.20619 10.6381 3.41619 10.8481L11.1692 18.6021C11.3085 18.7415 11.4739 18.852 11.6559 18.9275C11.838 19.0029 12.0331 19.0417 12.2302 19.0417C12.4272 19.0417 12.6224 19.0029 12.8044 18.9275C12.9865 18.852 13.1519 18.7415 13.2912 18.6021L18.9482 12.9451C19.0876 12.8058 19.1982 12.6404 19.2736 12.4583C19.349 12.2763 19.3879 12.0811 19.3879 11.8841C19.3879 11.687 19.349 11.4919 19.2736 11.3098C19.1982 11.1278 19.0876 10.9624 18.9482 10.8231L11.1942 3.07007C10.9864 2.85855 10.7167 2.71849 10.4242 2.67007C7.66119 2.25907 3.18619 2.65007 3.09419 2.74807Z" fill="#333333"/>
<path d="M9.14227 7.46605C9.23512 7.55896 9.30875 7.66925 9.35897 7.79062C9.4092 7.91199 9.43502 8.04206 9.43498 8.17341C9.43493 8.30476 9.40901 8.43481 9.3587 8.55614C9.3084 8.67747 9.23468 8.78771 9.14177 8.88055C9.04886 8.9734 8.93858 9.04703 8.81721 9.09726C8.69584 9.14748 8.56577 9.1733 8.43442 9.17326C8.30307 9.17321 8.17302 9.14729 8.05169 9.09699C7.93035 9.04668 7.82012 8.97296 7.72727 8.88005C7.53976 8.69241 7.43448 8.43797 7.43457 8.1727C7.43466 7.90743 7.54013 7.65306 7.72777 7.46555C7.91541 7.27805 8.16986 7.17276 8.43513 7.17285C8.7004 7.17295 8.95476 7.27841 9.14227 7.46605Z" />
</svg>
