<svg viewBox="0 0 32 32" xmlns="http://www.w3.org/2000/svg">
<path d="M15.9322 19.3863C20.5071 19.3863 24.4135 20.1116 24.4135 23.014C24.4135 25.9151 20.5322 26.6668 15.9322 26.6668C11.3573 26.6668 7.45095 25.9415 7.45095 23.0404C7.45095 20.138 11.3322 19.3863 15.9322 19.3863ZM23.2469 17.6387C24.9959 17.6062 26.8763 17.8464 27.5711 18.0169C29.0432 18.3063 30.0114 18.8971 30.4125 19.7557C30.7516 20.4606 30.7516 21.2783 30.4125 21.982C29.7989 23.3137 27.8206 23.7412 27.0518 23.8517C26.893 23.8757 26.7653 23.7376 26.782 23.5779C27.1748 19.8878 24.0504 18.1382 23.2421 17.7359C23.2075 17.7179 23.2004 17.6903 23.2039 17.6735C23.2063 17.6615 23.2207 17.6423 23.2469 17.6387ZM8.42494 17.6362L8.75429 17.6391C8.78056 17.6427 8.79369 17.662 8.79608 17.6728C8.79966 17.6908 8.7925 17.7172 8.75907 17.7364C7.94963 18.1387 4.82527 19.8883 5.21805 23.5771C5.23477 23.7381 5.10822 23.8749 4.94943 23.8521C4.18058 23.7417 2.20234 23.3142 1.58869 21.9825C1.24843 21.2776 1.24843 20.461 1.58869 19.7562C1.98983 18.8976 2.95686 18.3068 4.4289 18.0162C5.12493 17.8469 7.00408 17.6067 8.75429 17.6391L8.42494 17.6362ZM15.9322 5.3335C19.047 5.3335 21.5446 7.84319 21.5446 10.9773C21.5446 14.1102 19.047 16.6223 15.9322 16.6223C12.8174 16.6223 10.3198 14.1102 10.3198 10.9773C10.3198 7.84319 12.8174 5.3335 15.9322 5.3335ZM23.5514 6.27469C26.5599 6.27469 28.9226 9.12181 28.1179 12.2931C27.5747 14.4282 25.6084 15.8463 23.4176 15.7887C23.198 15.7827 22.9819 15.7623 22.773 15.7263C22.6213 15.6998 22.5449 15.5281 22.6309 15.4008C23.4666 14.164 23.943 12.6762 23.943 11.0791C23.943 9.4124 23.4224 7.85856 22.5187 6.5845C22.49 6.54487 22.4685 6.48363 22.4972 6.438C22.5211 6.40078 22.5652 6.38156 22.607 6.37196C22.9114 6.30951 23.2242 6.27469 23.5514 6.27469ZM8.44807 6.27457C8.77519 6.27457 9.08798 6.30939 9.39361 6.37184C9.4342 6.38144 9.47957 6.40186 9.50345 6.43788C9.53091 6.48351 9.51061 6.54475 9.48196 6.58438C8.5782 7.85844 8.05767 9.41228 8.05767 11.079C8.05767 12.6761 8.53403 14.1639 9.36973 15.4007C9.45569 15.528 9.37929 15.6997 9.22766 15.7261C9.01754 15.7634 8.80265 15.7826 8.58297 15.7886C6.39222 15.8462 4.42592 14.4281 3.88271 12.293C3.07685 9.12169 5.43951 6.27457 8.44807 6.27457Z"/>
</svg>
